<?xml version="1.0" encoding="UTF-8" standalone="no"?>
<svg
   width="33.855mm"
   height="7.8540001mm"
   viewBox="0 0 33.855 7.8540001"
   version="1.1"
   id="svg4"
   sodipodi:docname="ontoui_logo.svg"
   inkscape:version="1.3.2 (091e20e, 2023-11-25)"
   xmlns:inkscape="http://www.inkscape.org/namespaces/inkscape"
   xmlns:sodipodi="http://sodipodi.sourceforge.net/DTD/sodipodi-0.dtd"
   xmlns="http://www.w3.org/2000/svg"
   xmlns:svg="http://www.w3.org/2000/svg">
  <sodipodi:namedview
     id="namedview4"
     pagecolor="#ffffff"
     bordercolor="#666666"
     borderopacity="1.0"
     inkscape:showpageshadow="2"
     inkscape:pageopacity="0.0"
     inkscape:pagecheckerboard="0"
     inkscape:deskcolor="#d1d1d1"
     inkscape:document-units="mm"
     showgrid="false"
     inkscape:zoom="4.4540536"
     inkscape:cx="70.385322"
     inkscape:cy="22.675973"
     inkscape:window-width="1280"
     inkscape:window-height="449"
     inkscape:window-x="0"
     inkscape:window-y="25"
     inkscape:window-maximized="0"
     inkscape:current-layer="svg4" />
  <defs
     id="defs1">
    <path
       id="a"
       d="m 229.614,383.783 h 218.953 v 52.483 H 229.614 Z" />
  </defs>
  <path
     id="path3"
     style="font-size:10.5833px;line-height:1.25;fill:#0066ff;stroke-width:0.264583"
     d="M 3.6721273 0 C 2.5081295 0 1.59706 0.37023218 0.94206136 1.1322306 C 0.30606264 1.8522292 -7.8332324e-17 2.7842296 0 3.9372274 C 0 5.080225 0.30602911 6.0108567 0.94102783 6.7308553 C 1.5970265 7.4708539 2.5080961 7.8527507 3.6710937 7.8527507 C 4.8250915 7.8527507 5.7355279 7.4828893 6.4021932 6.7422241 C 7.037192 6.0322255 7.3551066 5.102225 7.3551066 3.9372274 C 7.3551066 2.7732296 7.037192 1.8308939 6.4021932 1.1218953 C 5.7361946 0.3708969 4.8251249 0 3.6721273 0 z M 4.2260986 0.86816406 A 2.457 2.822 0 0 1 6.6827962 3.690214 A 2.457 2.822 0 0 1 5.2110514 6.2724854 C 4.813993 6.5959535 4.3022228 6.7628947 3.6710937 6.7628947 C 2.8890953 6.7628947 2.275049 6.4979957 1.8510498 5.9799967 C 1.4390506 5.4719979 1.2381673 4.7952256 1.2381673 3.9372274 C 1.2381673 3.070229 1.4390841 2.3921217 1.8520833 1.8841227 C 2.1933374 1.467384 2.6406112 1.2174056 3.1961873 1.1286133 A 2.457 2.822 0 0 1 4.2260986 0.86816406 z M 11.239107 2.085144 L 11.239107 2.0861776 A 2 2 0 0 0 10.338904 2.2861654 C 10.073904 2.413165 9.8310842 2.6140424 9.6200846 2.868042 L 9.6200846 2.2329386 L 8.4129232 2.2329386 L 8.4129232 7.7049561 L 9.6200846 7.7049561 L 9.6200846 4.4131673 C 9.6620846 3.9791683 9.8099858 3.6410603 10.063985 3.4080607 C 10.286985 3.1970611 10.550883 3.0902507 10.846883 3.0902507 C 11.672881 3.0902507 12.086084 3.5348732 12.086084 4.4348714 L 12.086084 7.7049561 L 13.292212 7.7049561 L 13.292212 4.3289347 C 13.292212 2.8249377 12.604105 2.085144 11.239107 2.085144 z M 20.933089 2.0861776 C 20.097091 2.0861776 19.430176 2.3511161 18.932178 2.9011149 C 18.425178 3.4411139 18.181836 4.1289253 18.181836 4.9759237 C 18.181836 5.8119219 18.424844 6.4990295 18.921842 7.0290283 C 19.429842 7.5790273 20.097125 7.8537842 20.934123 7.8537842 C 21.759121 7.8537842 22.435821 7.5790273 22.943819 7.0290283 C 23.430819 6.5000293 23.684859 5.8119219 23.684859 4.9759237 C 23.684859 4.1289253 23.430967 3.4411139 22.932967 2.9011149 C 22.425969 2.3511161 21.759087 2.0861776 20.933089 2.0861776 z M 20.933089 3.0690633 C 21.431089 3.0690633 21.821843 3.2597924 22.096842 3.661792 C 22.329842 4.0007917 22.457027 4.4448907 22.457027 4.9748901 C 22.457027 5.4928896 22.329842 5.9271031 22.096842 6.2761027 C 21.822843 6.6681023 21.431089 6.8688314 20.933089 6.8688314 C 20.42509 6.8688314 20.043819 6.6681023 19.768819 6.2761027 C 19.535486 5.938103 19.41897 5.5042229 19.41897 4.9748901 C 19.41897 4.4448907 19.535819 4.0007917 19.768819 3.661792 C 20.043819 3.2587924 20.42509 3.0690633 20.933089 3.0690633 z " />
  <path
     id="path2"
     style="font-size:10.5833px;line-height:1.25;fill:#0066ff;stroke-width:0.264583"
     d="m 26.08678,0.1477946 -1.237651,0.001034 v 4.6880855 c 0,0.983999 0.275125,1.7349785 0.836125,2.264978 0.528999,0.4969995 1.301837,0.7508586 2.306836,0.7508586 0.995332,0 1.767688,-0.2537112 2.317688,-0.7617107 C 30.859777,6.5723739 31.13505,5.8209131 31.13505,4.8369141 V 0.14882812 H 29.896883 V 4.8581014 c 0,0.6559993 -0.157753,1.132041 -0.454752,1.4500407 -0.307,0.3069997 -0.794042,0.4650879 -1.450041,0.4650879 -0.666999,0 -1.153041,-0.1580882 -1.450041,-0.4650879 -0.307,-0.3179997 -0.455269,-0.7940414 -0.455269,-1.4500407 z m 6.530351,0.001034 v 7.5561275 h 1.23765 V 0.14882812 Z M 16.277043,0.46612142 15.069881,0.9632487 v 1.2696899 h -0.983919 v 0.9952881 h 0.983919 v 3.0897339 c 0,0.4449996 0.106294,0.7731404 0.317293,1.0061401 0.222667,0.2533331 0.571999,0.3798218 1.047999,0.3798218 h 0.920874 V 6.7101847 h -0.719853 c -0.127,0 -0.212436,-0.032085 -0.275436,-0.095085 -0.064,-0.074 -0.08372,-0.1701061 -0.08372,-0.296106 v -3.090767 h 1.21698 V 2.2329386 h -1.21698 z M 3.6710937,1.089856 c -0.7824826,2.394e-4 -1.385207,0.2655064 -1.8190104,0.7942667 -0.4129996,0.5079995 -0.613916,1.1861055 -0.613916,2.0531047 0,0.8579991 0.2009164,1.5347699 0.613916,2.0427693 0.4229996,0.5179995 1.0370448,0.782898 1.820044,0.782898 0.7829992,0 1.3857091,-0.2538591 1.8097086,-0.7508586 C 5.8938355,5.5140366 6.1060872,4.8262265 6.1060872,3.9372274 6.1060872,3.0482283 5.893802,2.3497475 5.4808024,1.841748 5.0579941,1.3339783 4.4556084,1.0900765 3.6721273,1.089856 h -5.168e-4 z m 7.5680133,0.995288 c -0.327999,0 -0.625203,0.064021 -0.900203,0.2010214 -0.2785,0.140715 -0.5238815,0.3390633 -0.7198529,0.5818766 V 2.2329386 H 8.4129232 V 7.7049561 H 9.6200846 V 4.4131673 c 0.042,-0.4339995 0.1899008,-0.7721068 0.4439004,-1.0051066 0.222,-0.2109998 0.486898,-0.31781 0.782898,-0.31781 0.825999,0 1.239201,0.4446216 1.239201,1.3446207 v 3.2700847 h 1.206128 V 4.3289347 c 0,-1.5029985 -0.688106,-2.2437907 -2.053105,-2.2437907 z m 9.693982,0 c -0.835999,0 -1.502878,0.2649379 -1.999878,0.8149374 -0.507999,0.5399994 -0.752409,1.2278096 -0.752409,2.0748087 0,0.8359992 0.244074,1.5241052 0.742074,2.0531047 0.506999,0.5499994 1.174214,0.8247559 2.010213,0.8247559 0.825999,0 1.502731,-0.2747565 2.01073,-0.8247559 0.487,-0.5299995 0.74104,-1.2171055 0.74104,-2.0531047 0,-0.8469991 -0.516208,-1.1225472 -1.013207,-1.6625466 -0.508,-0.5499995 -0.91253,-1.2271995 -1.737529,-1.2271995 z m 0.488859,0.8107971 c 1.039543,-3.44e-5 1.638618,0.6740102 1.638447,1.8289967 -0.002,1.0671749 -0.483384,1.3430477 -1.438459,1.9811128 -0.199786,0.107229 -0.428933,0.1627808 -0.687813,0.1627808 -0.508,0 -0.889271,-0.2007291 -1.16427,-0.5927287 -0.233333,-0.3379997 -0.34985,-0.7718798 -0.34985,-1.3012126 0,-0.4732258 0.09838,-0.8732158 0.284221,-1.1957926 0.302448,-0.7533552 0.975272,-0.8826996 1.717724,-0.8831564 z"
     sodipodi:nodetypes="ccscscsccscscsccccccccccccscsccscscccccscscscscscssccccccccssccssscscscscsscccscscc" />
</svg>
