<svg xmlns="http://www.w3.org/2000/svg" preserveAspectRatio="xMidYMid meet" width="127.956" height="29.684" viewBox="0 0 33.855 7.854"><path d="M20.933 3.069c-.508 0-.889.19-1.164.593-.233.339-.35.783-.35 1.313q0 .794.35 1.301c.275.392.656.593 1.164.593.498 0 .89-.201 1.164-.593.233-.349.36-.783.36-1.301 0-.53-.127-.974-.36-1.313-.275-.402-.666-.593-1.164-.593" style="font-size:10.5833px;line-height:1.25;fill:#06f;stroke-width:.264583"/><path d="M20.933 2.085c-.836 0-1.503.265-2 .815-.508.54-.752 1.228-.752 2.075 0 .836.244 1.524.742 2.053.507.55 1.174.825 2.01.825.826 0 1.503-.275 2.011-.825.487-.53.741-1.217.741-2.053 0-.847-.254-1.535-.751-2.075-.508-.55-1.175-.815-2-.815m0 .984c.498 0 .89.19 1.164.593.233.339.36.783.36 1.313 0 .518-.127.952-.36 1.301-.275.392-.666.593-1.164.593-.508 0-.889-.201-1.164-.593q-.35-.507-.35-1.301c0-.53.117-.974.35-1.313.275-.402.656-.593 1.164-.593m-9.695-.984c-.328 0-.625.064-.9.201a2.2 2.2 0 0 0-.72.582v-.635H8.413v5.472H9.62V4.413c.042-.434.19-.772.444-1.005.222-.211.487-.318.783-.318.826 0 1.239.445 1.239 1.345v3.27h1.206V4.329c0-1.503-.688-2.244-2.053-2.244M3.672 1.09c-.783 0-1.386.265-1.82.794-.413.508-.614 1.186-.614 2.053 0 .858.201 1.535.614 2.043.423.518 1.037.783 1.82.783s1.386-.254 1.81-.751c.412-.498.624-1.186.624-2.075s-.212-1.587-.625-2.095c-.423-.508-1.026-.752-1.81-.752M16.277.466 15.07.963v1.27h-.984v.995h.984v3.09c0 .445.106.773.317 1.006q.334.38 1.048.38h.921V6.71h-.72c-.127 0-.212-.032-.275-.095-.064-.074-.084-.17-.084-.296V3.228h1.217v-.995h-1.217zm16.34-.317v7.556h1.238V.149Zm-7.768 0v4.688c0 .984.275 1.735.836 2.265.529.497 1.302.751 2.307.751q1.493 0 2.318-.762.825-.778.825-2.254V.149h-1.238v4.709c0 .656-.158 1.132-.455 1.45-.307.307-.794.465-1.45.465-.667 0-1.153-.158-1.45-.465-.307-.318-.455-.794-.455-1.45V.148z" style="font-size:10.5833px;line-height:1.25;fill:#06f;stroke-width:.264583"/><path d="M3.672 0C2.508 0 1.597.37.942 1.132.306 1.852 0 2.784 0 3.937 0 5.08.306 6.011.941 6.731c.656.74 1.567 1.122 2.73 1.122q1.731 0 2.731-1.111c.635-.71.953-1.64.953-2.805 0-1.164-.318-2.106-.953-2.815C5.736.371 4.825 0 3.672 0m0 1.09c.783 0 1.386.244 1.81.752.412.508.624 1.206.624 2.095s-.212 1.577-.625 2.075c-.423.497-1.026.751-1.81.751-.782 0-1.396-.265-1.82-.783-.412-.508-.613-1.185-.613-2.043 0-.867.201-1.545.614-2.053.434-.53 1.037-.794 1.82-.794m7.567.995c1.365 0 2.053.74 2.053 2.244v3.376h-1.206v-3.27c0-.9-.413-1.345-1.239-1.345-.296 0-.56.107-.783.318-.254.233-.402.571-.444 1.005v3.292H8.413V2.233H9.62v.635c.211-.254.454-.455.719-.582a2 2 0 0 1 .9-.2m9.694 0c.826 0 1.493.265 2 .815.498.54.752 1.228.752 2.075 0 .836-.254 1.524-.741 2.053-.508.55-1.185.825-2.01.825-.837 0-1.504-.275-2.012-.825-.497-.53-.74-1.217-.74-2.053 0-.847.243-1.535.75-2.075.498-.55 1.165-.815 2.001-.815" style="font-size:10.5833px;line-height:1.25;fill:#06f;stroke-width:.264583"/><ellipse cx="4.226" cy="3.69" rx="2.457" ry="2.822" style="fill:#fff;stroke:#00f;stroke-width:.264583"/><ellipse cx="21.422" cy="4.631" rx="1.882" ry="2.091" style="fill:#fff;stroke:#00f;stroke-width:.264583"/></svg>