<?xml version="1.0" encoding="UTF-8" standalone="no"?>
<svg
   width="33.855mm"
   height="7.8540001mm"
   viewBox="0 0 33.855 7.8540001"
   version="1.1"
   id="svg4"
   sodipodi:docname="ontoui_logo.svg"
   inkscape:version="1.3.2 (091e20e, 2023-11-25)"
   xmlns:inkscape="http://www.inkscape.org/namespaces/inkscape"
   xmlns:sodipodi="http://sodipodi.sourceforge.net/DTD/sodipodi-0.dtd"
   xmlns="http://www.w3.org/2000/svg"
   xmlns:svg="http://www.w3.org/2000/svg">
  <sodipodi:namedview
     id="namedview4"
     pagecolor="#ffffff"
     bordercolor="#666666"
     borderopacity="1.0"
     inkscape:showpageshadow="2"
     inkscape:pageopacity="0.0"
     inkscape:pagecheckerboard="0"
     inkscape:deskcolor="#d1d1d1"
     inkscape:document-units="mm"
     showgrid="false"
     inkscape:zoom="1.0323842"
     inkscape:cx="93.472953"
     inkscape:cy="45.525687"
     inkscape:window-width="1280"
     inkscape:window-height="449"
     inkscape:window-x="0"
     inkscape:window-y="25"
     inkscape:window-maximized="0"
     inkscape:current-layer="svg4" />
  <defs
     id="defs1">
    <path
       id="a"
       d="m 229.614,383.783 h 218.953 v 52.483 H 229.614 Z" />
  </defs>
  <path
     d="m 20.933,3.069 c -0.508,0 -0.889,0.19 -1.164,0.593 -0.233,0.339 -0.35,0.783 -0.35,1.313 q 0,0.794 0.35,1.301 c 0.275,0.392 0.656,0.593 1.164,0.593 0.498,0 0.89,-0.201 1.164,-0.593 0.233,-0.349 0.36,-0.783 0.36,-1.301 0,-0.53 -0.127,-0.974 -0.36,-1.313 C 21.822,3.26 21.431,3.069 20.933,3.069"
     style="font-size:10.5833px;line-height:1.25;fill:#0066ff;stroke-width:0.264583"
     id="path1" />
  <path
     d="m 20.933,2.085 c -0.836,0 -1.503,0.265 -2,0.815 -0.508,0.54 -0.752,1.228 -0.752,2.075 0,0.836 0.244,1.524 0.742,2.053 0.507,0.55 1.174,0.825 2.01,0.825 0.826,0 1.503,-0.275 2.011,-0.825 0.487,-0.53 0.741,-1.217 0.741,-2.053 0,-0.847 -0.254,-1.535 -0.751,-2.075 -0.508,-0.55 -1.175,-0.815 -2,-0.815 m 0,0.984 c 0.498,0 0.89,0.19 1.164,0.593 0.233,0.339 0.36,0.783 0.36,1.313 0,0.518 -0.127,0.952 -0.36,1.301 -0.275,0.392 -0.666,0.593 -1.164,0.593 -0.508,0 -0.889,-0.201 -1.164,-0.593 Q 19.42,5.769 19.42,4.975 c 0,-0.53 0.117,-0.974 0.35,-1.313 0.275,-0.402 0.656,-0.593 1.164,-0.593 M 11.239,2.085 c -0.328,0 -0.625,0.064 -0.9,0.201 A 2.2,2.2 0 0 0 9.619,2.868 V 2.233 H 8.413 V 7.705 H 9.62 V 4.413 C 9.662,3.979 9.81,3.641 10.064,3.408 10.286,3.197 10.551,3.09 10.847,3.09 c 0.826,0 1.239,0.445 1.239,1.345 v 3.27 h 1.206 V 4.329 c 0,-1.503 -0.688,-2.244 -2.053,-2.244 M 3.672,1.09 C 2.889,1.09 2.286,1.355 1.852,1.884 1.439,2.392 1.238,3.07 1.238,3.937 c 0,0.858 0.201,1.535 0.614,2.043 0.423,0.518 1.037,0.783 1.82,0.783 0.783,0 1.386,-0.254 1.81,-0.751 C 5.894,5.514 6.106,4.826 6.106,3.937 6.106,3.048 5.894,2.35 5.481,1.842 5.058,1.334 4.455,1.09 3.671,1.09 M 16.277,0.466 15.07,0.963 v 1.27 h -0.984 v 0.995 h 0.984 v 3.09 c 0,0.445 0.106,0.773 0.317,1.006 q 0.334,0.38 1.048,0.38 h 0.921 V 6.71 h -0.72 C 16.509,6.71 16.424,6.678 16.361,6.615 16.297,6.541 16.277,6.445 16.277,6.319 V 3.228 h 1.217 V 2.233 h -1.217 z m 16.34,-0.317 v 7.556 h 1.238 V 0.149 Z m -7.768,0 v 4.688 c 0,0.984 0.275,1.735 0.836,2.265 0.529,0.497 1.302,0.751 2.307,0.751 q 1.493,0 2.318,-0.762 0.825,-0.778 0.825,-2.254 V 0.149 h -1.238 v 4.709 c 0,0.656 -0.158,1.132 -0.455,1.45 -0.307,0.307 -0.794,0.465 -1.45,0.465 -0.667,0 -1.153,-0.158 -1.45,-0.465 C 26.235,5.99 26.087,5.514 26.087,4.858 v -4.71 z"
     style="font-size:10.5833px;line-height:1.25;fill:#0066ff;stroke-width:0.264583"
     id="path2" />
  <path
     d="M 3.672,0 C 2.508,0 1.597,0.37 0.942,1.132 0.306,1.852 0,2.784 0,3.937 0,5.08 0.306,6.011 0.941,6.731 c 0.656,0.74 1.567,1.122 2.73,1.122 q 1.731,0 2.731,-1.111 C 7.037,6.032 7.355,5.102 7.355,3.937 7.355,2.773 7.037,1.831 6.402,1.122 5.736,0.371 4.825,0 3.672,0 m 0,1.09 c 0.783,0 1.386,0.244 1.81,0.752 0.412,0.508 0.624,1.206 0.624,2.095 0,0.889 -0.212,1.577 -0.625,2.075 C 5.058,6.509 4.455,6.763 3.671,6.763 2.889,6.763 2.275,6.498 1.851,5.98 1.439,5.472 1.238,4.795 1.238,3.937 1.238,3.07 1.439,2.392 1.852,1.884 2.286,1.354 2.889,1.09 3.672,1.09 m 7.567,0.995 c 1.365,0 2.053,0.74 2.053,2.244 v 3.376 h -1.206 v -3.27 c 0,-0.9 -0.413,-1.345 -1.239,-1.345 -0.296,0 -0.56,0.107 -0.783,0.318 C 9.81,3.641 9.662,3.979 9.62,4.413 V 7.705 H 8.413 V 2.233 H 9.62 V 2.868 C 9.831,2.614 10.074,2.413 10.339,2.286 a 2,2 0 0 1 0.9,-0.2 m 9.694,0 c 0.826,0 1.493,0.265 2,0.815 0.498,0.54 0.752,1.228 0.752,2.075 0,0.836 -0.254,1.524 -0.741,2.053 -0.508,0.55 -1.185,0.825 -2.01,0.825 -0.837,0 -1.504,-0.275 -2.012,-0.825 -0.497,-0.53 -0.74,-1.217 -0.74,-2.053 0,-0.847 0.243,-1.535 0.75,-2.075 0.498,-0.55 1.165,-0.815 2.001,-0.815"
     style="font-size:10.5833px;line-height:1.25;fill:#0066ff;stroke-width:0.264583"
     id="path3" />
  <ellipse
     cx="4.2260027"
     cy="3.6900015"
     rx="2.457"
     ry="2.822"
     style="fill:#ffffff;stroke:#0000ff;stroke-width:0.264583"
     id="ellipse3" />
  <ellipse
     cx="21.422003"
     cy="4.6310034"
     rx="1.882"
     ry="2.0910001"
     style="fill:#ffffff;stroke:#0000ff;stroke-width:0.264583"
     id="ellipse4" />
</svg>
